<svg xmlns="http://www.w3.org/2000/svg" width="24" height="23" fill="none" viewBox="0 0 24 23"><path stroke="#495057" stroke-linecap="round" stroke-linejoin="round" stroke-width="1.5" d="M2 17.25C7.46719 17.25 12.7636 17.9812 17.7968 19.3512C18.5238 19.5491 19.25 19.0086 19.25 18.2551V17.25M3.5 3V3.75C3.5 4.16421 3.16421 4.5 2.75 4.5H2M2 4.5V4.125C2 3.50368 2.50368 3 3.125 3H20M2 4.5V13.5M20 3V3.75C20 4.16421 20.3358 4.5 20.75 4.5H21.5M20 3H20.375C20.9963 3 21.5 3.50368 21.5 4.125V13.875C21.5 14.4963 20.9963 15 20.375 15H20M21.5 13.5H20.75C20.3358 13.5 20 13.8358 20 14.25V15M20 15H3.5M3.5 15H3.125C2.50368 15 2 14.4963 2 13.875V13.5M3.5 15V14.25C3.5 13.8358 3.16421 13.5 2.75 13.5H2M14.75 9C14.75 10.6569 13.4069 12 11.75 12C10.0931 12 8.75 10.6569 8.75 9C8.75 7.34315 10.0931 6 11.75 6C13.4069 6 14.75 7.34315 14.75 9ZM17.75 9H17.7575V9.0075H17.75V9ZM5.75 9H5.7575V9.0075H5.75V9Z"/></svg>