<svg xmlns="http://www.w3.org/2000/svg" width="24" height="25" fill="none" viewBox="0 0 24 25"><path stroke="#495057" stroke-linecap="round" stroke-linejoin="round" stroke-width="1.5" d="M18 7.89258V10.8926M18 10.8926V13.8926M18 10.8926H21M18 10.8926H15M12.75 6.76758C12.75 8.63154 11.239 10.1426 9.375 10.1426C7.51104 10.1426 6 8.63154 6 6.76758C6 4.90362 7.51104 3.39258 9.375 3.39258C11.239 3.39258 12.75 4.90362 12.75 6.76758ZM3.00092 19.6269C3.00031 19.5905 3 19.5541 3 19.5176C3 15.9968 5.85418 13.1426 9.375 13.1426C12.8958 13.1426 15.75 15.9968 15.75 19.5176V19.5201C15.75 19.5558 15.7497 19.5914 15.7491 19.6269C13.8874 20.7478 11.7065 21.3926 9.375 21.3926C7.04353 21.3926 4.86264 20.7478 3.00092 19.6269Z"/></svg>